# xmcd CD database file
#
# Track frame offsets:
#	150
#	13227
#	31597
#	44835
#	61675
#	74500
#	85872
#	104537
#	116745
#	133580
#
# Disc length: 1984 seconds
#
# Revision: 0
# Processed by: cddbd v1.5.1PL0 Copyright (c) Steve Scherf et al.
# Submitted via: CDex 1.51
#
DISCID=8907be0a
DTITLE=My Way '89 - Tonight Again
DYEAR=1900
DGENRE=Country
TTITLE0=Sunday Feeling
TTITLE1=Rain On My Window
TTITLE2=Brand New Man
TTITLE3=Queen Of Silver Dollar
TTITLE4=Amanda
TTITLE5=Tonight Again
TTITLE6=Tomorrow I'll Be Gone
TTITLE7=If I Weren't For Country Music I'd Go Crazy
TTITLE8=Dunkle Rose
TTITLE9=Will The Circle Be Unbroken
EXTD=
EXTT0=
EXTT1=
EXTT2=
EXTT3=
EXTT4=
EXTT5=
EXTT6=
EXTT7=
EXTT8=
EXTT9=
PLAYORDER=
